<?xml version="1.0" encoding="UTF-8"?>
<svg xmlns="http://www.w3.org/2000/svg" xmlns:xlink="http://www.w3.org/1999/xlink" width="512px" height="512px" viewBox="0 0 512 512" version="1.1">
<g id="surface1">
<path style=" stroke:none;fill-rule:nonzero;fill:rgb(0.392157%,0.392157%,0.392157%);fill-opacity:1;" d="M 0 0 C 168.960938 0 337.921875 0 512 0 C 512 168.960938 512 337.921875 512 512 C 343.039062 512 174.078125 512 0 512 C 0 343.039062 0 174.078125 0 0 Z M 0 0 "/>
<path style=" stroke:none;fill-rule:nonzero;fill:rgb(98.431373%,98.431373%,98.823529%);fill-opacity:1;" d="M 253.058594 155.371094 C 254.367188 155.375 255.671875 155.371094 256.980469 155.363281 C 264.167969 155.355469 271.054688 156.007812 278.0625 157.6875 C 278.53125 157.796875 278.996094 157.90625 279.476562 158.019531 C 292.550781 161.125 304.730469 166.382812 315.5 174.5 C 315.804688 174.730469 316.113281 174.960938 316.429688 175.195312 C 321.535156 179.046875 326.550781 183.101562 330.671875 188.019531 C 331.226562 188.675781 331.800781 189.320312 332.390625 189.949219 C 346.613281 205.164062 356.554688 228.304688 356.582031 249.292969 C 356.585938 249.699219 356.585938 250.105469 356.589844 250.523438 C 356.589844 251.382812 356.59375 252.242188 356.59375 253.101562 C 356.59375 254.382812 356.601562 255.664062 356.613281 256.949219 C 356.703125 283.527344 346.222656 307.386719 328 326.5 C 327.582031 326.953125 327.160156 327.402344 326.730469 327.867188 C 314.132812 341.035156 296.300781 350.550781 278.53125 354.273438 C 277.457031 354.507812 276.398438 354.785156 275.335938 355.0625 C 253.28125 360.359375 228.085938 355.960938 208.5 345 C 207.972656 344.710938 207.972656 344.710938 207.4375 344.414062 C 202.695312 341.765625 198.234375 338.917969 194 335.5 C 193.488281 335.089844 192.976562 334.679688 192.449219 334.261719 C 177.222656 321.84375 166.488281 305.980469 160 287.5 C 159.875 287.148438 159.746094 286.796875 159.617188 286.433594 C 156.121094 276.585938 154.886719 266.242188 154.875 255.84375 C 154.875 255.492188 154.875 255.140625 154.875 254.777344 C 154.878906 248.746094 155.3125 242.921875 156.5 237 C 156.570312 236.636719 156.640625 236.273438 156.710938 235.898438 C 160.160156 218.316406 168.84375 201.765625 180.960938 188.632812 C 181.910156 187.597656 182.816406 186.542969 183.71875 185.46875 C 197.617188 169.597656 218.320312 160.65625 238.5 156.5 C 238.96875 156.398438 239.4375 156.292969 239.917969 156.1875 C 244.28125 155.328125 248.628906 155.347656 253.058594 155.371094 Z M 253.058594 155.371094 "/>
<path style=" stroke:none;fill-rule:nonzero;fill:rgb(0.784314%,0.392157%,0.392157%);fill-opacity:1;" d="M 282.5625 162.46875 C 283.238281 162.472656 283.914062 162.472656 284.589844 162.476562 C 286.226562 162.480469 287.863281 162.488281 289.5 162.5 C 287.992188 163.503906 286.707031 163.976562 285 164.5625 C 281.539062 165.867188 278.867188 167.695312 276 170 C 275.707031 170.210938 275.417969 170.421875 275.117188 170.636719 C 269.011719 175.175781 266.375 183.191406 265.222656 190.382812 C 264.976562 191.894531 264.976562 191.894531 265 193 C 265.398438 193.023438 265.796875 193.050781 266.207031 193.074219 C 268.976562 193.269531 271.386719 193.519531 274 194.5 C 274.386719 194.574219 274.777344 194.648438 275.179688 194.722656 C 287.101562 197.058594 298.628906 206.179688 305.40625 216.085938 C 310.617188 224.089844 313.976562 232.929688 314.5 242.5 C 314.523438 242.886719 314.542969 243.269531 314.566406 243.667969 C 315.195312 256.75 311.363281 271.042969 302.71875 281.171875 C 302.316406 281.609375 301.914062 282.046875 301.5 282.5 C 301.109375 282.925781 301.109375 282.925781 300.710938 283.359375 C 290.878906 293.96875 277.875 301.207031 263.203125 302.109375 C 261.269531 302.167969 259.339844 302.191406 257.40625 302.1875 C 257.066406 302.1875 256.726562 302.1875 256.375 302.1875 C 250.992188 302.167969 246.097656 301.765625 241 300 C 240.53125 299.839844 240.53125 299.839844 240.050781 299.675781 C 223.851562 294.019531 212.011719 282.894531 204.5 267.539062 C 202.625 263.632812 201.398438 259.738281 200.5 255.5 C 200.414062 255.140625 200.328125 254.78125 200.242188 254.410156 C 199.355469 250.273438 199.3125 246.175781 199.316406 241.960938 C 199.3125 240.734375 199.292969 239.503906 199.273438 238.277344 C 199.222656 230.964844 200.46875 224.015625 203.125 217.1875 C 203.273438 216.796875 203.421875 216.40625 203.578125 216.003906 C 207.28125 206.519531 212.507812 198.414062 219.5 191 C 220.015625 190.386719 220.523438 189.773438 221.03125 189.15625 C 222.6875 187.222656 224.542969 185.621094 226.5 184 C 226.871094 183.683594 226.871094 183.683594 227.25 183.359375 C 242.839844 170.042969 262.042969 162.335938 282.5625 162.46875 Z M 282.5625 162.46875 "/>
<path style=" stroke:none;fill-rule:nonzero;fill:rgb(2.352941%,2.352941%,2.352941%);fill-opacity:1;" d="M 241.5 163 C 240.898438 163.195312 240.300781 163.390625 239.679688 163.589844 C 227.507812 167.636719 215.90625 173.273438 206 181.5 C 205.707031 181.742188 205.410156 181.988281 205.105469 182.238281 C 193.570312 191.84375 184.410156 203.628906 178.5 217.5 C 178.25 218.0625 177.996094 218.625 177.738281 219.203125 C 175.480469 224.480469 174.1875 229.894531 173 235.5 C 172.882812 236.054688 172.761719 236.609375 172.640625 237.179688 C 172 240.4375 171.652344 243.6875 171.5 247 C 171.484375 247.363281 171.464844 247.730469 171.449219 248.105469 C 171.019531 258.949219 172.042969 270.328125 176 280.5 C 176.1875 281 176.1875 281 176.378906 281.511719 C 179.527344 289.847656 183.601562 297.417969 189 304.5 C 189.3125 304.921875 189.621094 305.34375 189.941406 305.78125 C 202.675781 322.539062 222.835938 333.777344 243.5 337 C 267.164062 339.789062 290.40625 333.886719 309.1875 319.148438 C 325.4375 306.191406 335.570312 288.730469 340 268.5 C 340.078125 268.171875 340.152344 267.84375 340.230469 267.503906 C 344.738281 247.457031 340.558594 225.761719 330.875 207.910156 C 330.75 207.609375 330.628906 207.308594 330.5 207 C 330.664062 206.671875 330.828125 206.339844 331 206 C 339.382812 217.046875 345.601562 231.144531 347 245 C 347.054688 245.503906 347.109375 246.003906 347.164062 246.523438 C 348.828125 264.355469 345.808594 282.902344 336.988281 298.628906 C 336.492188 299.515625 336.011719 300.410156 335.539062 301.308594 C 332.398438 307.117188 328.445312 312.085938 323.976562 316.929688 C 323.183594 317.796875 322.445312 318.671875 321.71875 319.59375 C 320.128906 321.429688 318.355469 322.9375 316.5 324.5 C 316.066406 324.882812 315.636719 325.265625 315.1875 325.65625 C 303.554688 335.746094 288.988281 342.351562 274 345.5 C 273.621094 345.582031 273.242188 345.664062 272.851562 345.75 C 261.699219 348.089844 249.109375 347.949219 238 345.5 C 237.292969 345.359375 236.582031 345.21875 235.875 345.078125 C 212.222656 340.175781 191.636719 324.683594 178.351562 304.804688 C 170.65625 292.714844 165.804688 279.191406 164 265 C 163.933594 264.554688 163.867188 264.105469 163.800781 263.648438 C 162.511719 253.691406 163.328125 242.644531 166 233 C 166.203125 232.214844 166.402344 231.425781 166.605469 230.640625 C 170.507812 215.832031 177.574219 203.351562 187.691406 191.917969 C 188.367188 191.152344 189.027344 190.378906 189.6875 189.601562 C 192.933594 185.867188 196.535156 182.925781 200.5 180 C 200.914062 179.6875 201.332031 179.375 201.757812 179.054688 C 211.457031 171.996094 222.03125 167.316406 233.5 164 C 234.015625 163.851562 234.015625 163.851562 234.539062 163.695312 C 239.203125 162.359375 239.203125 162.359375 241.5 163 Z M 241.5 163 "/>
<path style=" stroke:none;fill-rule:nonzero;fill:rgb(21.960784%,22.352941%,21.960784%);fill-opacity:1;" d="M 241.5 163 C 239.875 163.574219 238.25 164.148438 236.625 164.71875 C 236.164062 164.882812 235.703125 165.042969 235.230469 165.210938 C 234.785156 165.367188 234.339844 165.523438 233.882812 165.6875 C 233.472656 165.828125 233.066406 165.972656 232.644531 166.121094 C 231.601562 166.464844 230.566406 166.75 229.5 167 C 229.5 166.671875 229.5 166.339844 229.5 166 C 229.171875 165.835938 228.839844 165.671875 228.5 165.5 C 230.289062 164.980469 232.082031 164.472656 233.875 163.96875 C 234.636719 163.746094 234.636719 163.746094 235.414062 163.523438 C 236.148438 163.316406 236.148438 163.316406 236.898438 163.109375 C 237.347656 162.980469 237.800781 162.851562 238.261719 162.71875 C 239.539062 162.492188 240.285156 162.582031 241.5 163 Z M 241.5 163 "/>
<path style=" stroke:none;fill-rule:nonzero;fill:rgb(13.333334%,13.725491%,13.725491%);fill-opacity:1;" d="M 330.5 206 C 333.101562 208.21875 334.460938 210.980469 336 214 C 335.503906 214.328125 335.011719 214.660156 334.5 215 C 333.832031 213.6875 333.164062 212.375 332.5 211.0625 C 332.308594 210.6875 332.117188 210.316406 331.921875 209.929688 C 331.742188 209.574219 331.5625 209.214844 331.375 208.847656 C 331.207031 208.519531 331.039062 208.1875 330.867188 207.847656 C 330.5 207 330.5 207 330.5 206 Z M 330.5 206 "/>
<path style=" stroke:none;fill-rule:nonzero;fill:rgb(6.27451%,6.666667%,6.27451%);fill-opacity:1;" d="M 289.5 162.5 C 287.859375 163.59375 286.398438 164 284.5 164.5 C 284.5 164.003906 284.5 163.511719 284.5 163 C 286.105469 162.195312 287.71875 162.472656 289.5 162.5 Z M 289.5 162.5 "/>
<path style=" stroke:none;fill-rule:nonzero;fill:rgb(7.450981%,7.843138%,8.235294%);fill-opacity:1;" d="M 335.5 214 C 336.160156 214.660156 336.820312 215.320312 337.5 216 C 337.335938 216.328125 337.171875 216.660156 337 217 C 336.503906 217.164062 336.011719 217.328125 335.5 217.5 C 335.308594 216.503906 335.144531 215.503906 335 214.5 C 335.164062 214.335938 335.328125 214.171875 335.5 214 Z M 335.5 214 "/>
</g>
</svg>
